{"title":"Life.of.Pi.2012.WEBrip XVID AC3 BHRG","uid":8164422,"size":2292600503,"categoryP":"video","categoryS":"movies","magnet":"?xt=urn:btih:86a52ccaa711a964db285f0541c98f8ec8b3b412&amp;dn=Life.of.Pi.2012.WEBrip+XVID+AC3+BHRG&amp;tr=udp%3A%2F%2Ftracker.openbittorrent.com%3A80&amp;tr=udp%3A%2F%2Fopen.demonii.com%3A1337&amp;tr=udp%3A%2F%2Ftracker.coppersurfer.tk%3A6969&amp;tr=udp%3A%2F%2Fexodus.desync.com%3A6969","seeders":1,"leechers":0,"uploader":"juggs99","files":3,"time":1361306491,"description":"Format                                   : AVI\nFormat/Info                              : Audio Video Interleave\nFormat profile                           : OpenDML\nFile size                                : 2.12 GiB\nDuration                                 : 2h 7mn\nOverall bit rate                         : 2 388 Kbps\nWriting library                          : VirtualDub build 30091/release\n\nVideo\nID                                       : 0\nFormat                                   : MPEG-4 Visual\nFormat profile                           : Advanced Simple@L5\nFormat settings, BVOP                    : 2\nFormat settings, QPel                    : No\nFormat settings, GMC                     : No warppoints\nFormat settings, Matrix                  : Default (H.263)\nMuxing mode                              : Packed bitstream\nCodec ID                                 : XVID\nCodec ID/Hint                            : XviD\nDuration                                 : 2h 7mn\nBit rate                                 : 1 993 Kbps\nWidth                                    : 720 pixels\nHeight                                   : 384 pixels\nDisplay aspect ratio                     : 1.85:1\nFrame rate                               : 23.976 fps\nColor space                              : YUV\nChroma subsampling                       : 4:2:0\nBit depth                                : 8 bits\nScan type                                : Progressive\nCompression mode                         : Lossy\nBits/(Pixel*Frame)                       : 0.301\nStream size                              : 1.77 GiB (83%)\nWriting library                          : XviD 1.2.1 (UTC 2008-12-04)\n\nAudio\nID                                       : 1\nFormat                                   : AC-3\nFormat/Info                              : Audio Coding 3\nMode extension                           : CM (complete main)\nFormat settings, Endianness              : Big\nCodec ID                                 : 2000\nDuration                                 : 2h 6mn\nBit rate mode                            : Constant\nBit rate                                 : 384 Kbps\nChannel(s)                               : 6 channels\nChannel positions                        : Front: L C R, Side: L R, LFE\nSampling rate                            : 48.0 KHz\nBit depth                                : 16 bits\nCompression mode                         : Lossy\nStream size                              : 349 MiB (16%\n\n &lt;a href=&quot;\nhttp://www.shotpix.com/images/68370317945352377743.png&quot; rel=&quot;nofollow&quot; target=&quot;_NEW&quot;&gt;\nhttp://www.shotpix.com/images/68370317945352377743.png&lt;/a&gt; &lt;a href=&quot;\nhttp://www.shotpix.com/images/74299261565404434256.png&quot; rel=&quot;nofollow&quot; target=&quot;_NEW&quot;&gt;\nhttp://www.shotpix.com/images/74299261565404434256.png&lt;/a&gt; &lt;a href=&quot;\nhttp://www.shotpix.com/images/27767928910632478995.png&quot; rel=&quot;nofollow&quot; target=&quot;_NEW&quot;&gt;\nhttp://www.shotpix.com/images/27767928910632478995.png&lt;/a&gt; &lt;a href=&quot;\nhttp://www.shotpix.com/images/72331361492416252700.png&quot; rel=&quot;nofollow&quot; target=&quot;_NEW&quot;&gt;\nhttp://www.shotpix.com/images/72331361492416252700.png&lt;/a&gt;","torrent":{"xt":"urn:btih:86a52ccaa711a964db285f0541c98f8ec8b3b412","amp;dn":"Life.of.Pi.2012.WEBrip+XVID+AC3+BHRG","amp;tr":["udp%3A%2F%2Ftracker.openbittorrent.com%3A80","udp%3A%2F%2Fopen.demonii.com%3A1337","udp%3A%2F%2Ftracker.coppersurfer.tk%3A6969","udp%3A%2F%2Fexodus.desync.com%3A6969"],"infoHash":"86a52ccaa711a964db285f0541c98f8ec8b3b412","infoHashBuffer":{"type":"Buffer","data":[134,165,44,202,167,17,169,100,219,40,95,5,65,201,143,142,200,179,180,18]},"announce":[],"urlList":[]}}